<svg width="353" height="184" viewBox="0 0 353 184" fill="none" xmlns="http://www.w3.org/2000/svg">
<path fill-rule="evenodd" clip-rule="evenodd" d="M107.572 26.9538C91.2301 19.8586 68.2389 3.84272 68.2389 3.84272C68.2389 3.84272 40.8551 38.679 25.1182 69.9178C25.3271 69.8923 25.548 69.8526 25.7347 69.8041C26.4793 69.611 27.8241 69.6222 27.7973 69.8212C27.7775 69.9684 26.7587 70.366 25.8967 70.5629C25.4964 70.6542 25.0161 70.8384 24.8293 70.972C24.7356 71.0391 24.6203 71.1065 24.4924 71.1706C23.5009 73.1729 22.5597 75.1583 21.6792 77.1164C21.7817 77.1219 21.8811 77.1376 21.9803 77.163C22.2601 77.2343 22.487 77.195 22.9941 76.9874C23.3534 76.8402 23.7499 76.7401 23.8752 76.7649C24.0003 76.7897 24.1368 76.7476 24.1785 76.6713C24.3043 76.4411 25.381 76.2463 25.8034 76.3774C26.0843 76.4646 26.2449 76.4531 26.4812 76.329C26.6516 76.2396 27.0351 76.1499 27.3334 76.1298C27.9001 76.0915 28.5381 75.8484 28.9131 75.5278C29.0342 75.4242 29.2446 75.3545 29.3808 75.3728C29.5169 75.3911 29.8043 75.289 30.0194 75.1459C30.3305 74.9389 30.4674 74.9064 30.6873 74.9866C30.9262 75.0737 31.0593 75.0209 31.6618 74.6001L32.3596 74.1126L32.9169 74.2527C33.3429 74.3597 33.5328 74.3624 33.7226 74.2643C33.93 74.1568 34.0232 74.163 34.2892 74.3018C34.563 74.4444 34.7598 74.4501 35.6897 74.3422C36.9359 74.1975 37.6569 74.2743 38.4039 74.6316L38.9325 74.8846L38.2017 75.113C37.3526 75.3784 35.9523 75.6046 35.1802 75.6011C34.8446 75.5995 34.5234 75.6732 34.3263 75.7969C34.1527 75.9059 33.9286 75.9841 33.8284 75.9706C33.72 75.9561 33.6428 76.0146 33.6378 76.1151C33.6312 76.2461 33.4437 76.3005 32.801 76.3575C32.3455 76.3979 31.8368 76.4145 31.6708 76.3942C31.5047 76.374 31.2211 76.4291 31.0405 76.5166C30.8599 76.6042 30.6385 76.6662 30.5485 76.6544C30.4585 76.6427 30.0278 76.8843 29.5915 77.1914C28.8136 77.7389 28.7875 77.7483 28.2411 77.6748C27.732 77.6064 27.6656 77.6232 27.471 77.8702C27.1572 78.2687 26.8449 78.3579 26.4554 78.1605C26.2805 78.072 26.1207 78.0332 26.1004 78.0744C25.9802 78.3168 25.5494 78.7554 25.3349 78.8537C24.8148 79.0918 24.6661 79.0599 24.5753 78.6908L24.4907 78.3472L24.2252 78.8336C23.8969 79.4354 23.6934 79.5055 22.9426 79.2752C22.3958 79.1076 22.3492 79.1103 21.9094 79.3374C20.9894 79.8124 20.9329 79.8291 20.8528 79.6523C20.823 79.5866 20.731 79.5633 20.6005 79.5736C20.1779 80.5608 19.7722 81.5399 19.385 82.5094C19.1123 83.192 18.8433 83.8835 18.5779 84.5833C18.9161 84.5626 19.179 84.5702 19.3085 84.613C19.5211 84.6832 19.9039 84.652 20.5585 84.5111C21.2799 84.3558 21.7529 84.3243 22.567 84.3775C23.6932 84.451 24.0289 84.3923 25.8913 83.7952C26.6294 83.5585 26.8744 83.5269 27.4124 83.5992C27.9739 83.6747 28.1062 83.6542 28.4737 83.435C28.8376 83.2179 28.9761 83.1956 29.5128 83.2678C29.8534 83.3136 30.1859 83.31 30.2515 83.2599C30.3347 83.1964 30.4427 83.2137 30.6076 83.3174C30.7938 83.4344 31.0294 83.452 31.7118 83.3998C32.2556 83.3582 32.978 83.3894 33.6475 83.4837C35.4089 83.7315 35.2893 83.8103 32.7902 84.0484C32.3912 84.0864 31.8574 84.1191 31.604 84.1211C31.3505 84.1232 31.0345 84.1739 30.9019 84.2338C30.7692 84.2937 30.5894 84.3332 30.5024 84.3215C30.4152 84.3098 30.2096 84.3726 30.0452 84.4611C29.8808 84.5496 29.2565 84.6699 28.6579 84.7286C27.3456 84.8571 26.763 84.9742 26.3479 85.1931C26.136 85.3048 25.8759 85.3364 25.5408 85.2914C25.1433 85.2379 24.9934 85.2679 24.7765 85.4444C24.5833 85.6015 24.4015 85.6497 24.1361 85.6141C23.8756 85.5791 23.6407 85.6386 23.3456 85.8147C23.1147 85.9525 22.8394 86.0536 22.7337 86.0394C22.6281 86.0252 22.3392 86.0814 22.0917 86.1643C21.6286 86.3195 19.8189 86.466 19.2729 86.3926C19.0996 86.3693 18.7305 86.4609 18.426 86.6027C18.2082 86.7042 17.9673 86.8061 17.7222 86.9024C17.351 87.9359 16.9872 88.9856 16.6307 90.0496L16.6463 90.0456C18.1637 89.6547 19.6633 89.504 20.8298 89.6251C21.4163 89.686 22.024 89.6832 22.374 89.618C22.7436 89.5491 23.4111 89.5512 24.23 89.6238C25.2501 89.7143 25.5529 89.7069 25.7264 89.5874C25.8459 89.5051 26.0442 89.4511 26.1669 89.4676C26.2897 89.4841 26.5205 89.4525 26.6799 89.3975C26.8392 89.3425 27.1431 89.2941 27.3552 89.29C27.5672 89.2859 27.8768 89.2108 28.0432 89.1231C28.2966 88.9895 28.5829 88.9854 29.8103 89.0977C30.6159 89.1715 31.5344 89.2386 31.8514 89.2469C32.1685 89.2552 32.4734 89.2994 32.5291 89.3451C32.5848 89.3908 32.0707 89.6236 31.3865 89.8623C30.4922 90.1744 29.9802 90.2932 29.5647 90.2849C29.2468 90.2785 28.5936 90.3098 28.113 90.3543C27.6325 90.3988 26.683 90.4747 26.0031 90.5228C25.3232 90.5709 24.7119 90.6432 24.6448 90.6833C24.4034 90.8278 22.6061 91.2279 22.0509 91.2608C20.7365 91.3387 20.3544 91.3261 20.1782 91.199C20.0367 91.0969 19.7996 91.1396 19.0238 91.4066C18.4869 91.5913 17.7918 91.7616 17.4792 91.7847C17.1666 91.808 16.7982 91.8782 16.6606 91.9408C16.492 92.0174 16.29 92.0168 16.0102 91.9385C9.56482 111.946 5.58217 136.555 3.2684 155.171C3.53459 154.916 3.7378 154.685 3.77861 154.583C3.9317 154.199 4.09041 154.077 4.38494 154.116C4.64339 154.151 4.84443 154.032 6.61366 152.798C7.12989 152.438 7.75431 152.074 8.00129 151.988C8.24826 151.903 8.45893 151.769 8.46948 151.69C8.48004 151.612 8.60202 151.502 8.74057 151.446C8.87913 151.39 8.97766 151.282 8.95959 151.206C8.93827 151.116 9.23752 150.95 9.80206 150.738C10.2836 150.557 10.9322 150.244 11.2435 150.043C11.5547 149.841 11.9544 149.624 12.1316 149.561C12.3089 149.499 12.5302 149.397 12.6234 149.335C13.007 149.082 14.6498 148.597 15.1286 148.596C15.6002 148.595 15.9855 148.459 17.0287 147.925C17.193 147.841 17.6659 147.748 18.0796 147.717C19.0284 147.648 19.6116 147.458 20.0763 147.067C20.2772 146.899 20.5003 146.768 20.5722 146.778C20.6442 146.788 20.8244 146.697 20.9728 146.576C21.1212 146.455 21.3103 146.366 21.3931 146.377C21.4759 146.388 21.834 146.206 22.1888 145.972C22.7254 145.619 22.8998 145.556 23.2249 145.6C23.456 145.631 23.7051 145.591 23.8343 145.503C23.9675 145.412 24.2428 145.371 24.5395 145.397C24.8073 145.422 25.3452 145.359 25.7347 145.258C26.4793 145.065 27.8241 145.076 27.7973 145.275C27.7775 145.422 26.7587 145.82 25.8967 146.017C25.4964 146.108 25.0161 146.292 24.8293 146.426C24.4837 146.673 23.8431 146.925 23.3711 147C22.8412 147.084 20.9355 147.91 20.5362 148.23C20.2 148.499 20.0517 148.55 19.7312 148.51C19.4001 148.469 19.2996 148.508 19.0921 148.757C18.9502 148.927 18.6987 149.079 18.4981 149.116C18.3068 149.151 17.9758 149.325 17.7626 149.503C17.5494 149.681 17.2837 149.814 17.1722 149.799C17.0607 149.784 16.7899 149.909 16.5705 150.076C16.2973 150.285 16.0793 150.368 15.8789 150.342C15.512 150.292 14.8421 150.464 14.5193 150.691C14.3841 150.786 14.2264 150.825 14.1688 150.777C14.0696 150.696 13.8641 150.822 12.0122 152.098C11.3788 152.534 11.2496 152.584 10.8721 152.533C10.3723 152.466 9.60016 152.751 9.21955 153.143C9.08121 153.286 8.89178 153.392 8.79833 153.379C8.55847 153.347 8.37146 153.55 8.40321 153.809C8.43516 154.069 8.11132 154.252 7.55777 154.287C7.35916 154.299 7.11825 154.379 7.02243 154.464C6.9266 154.549 6.54036 154.684 6.1641 154.763C5.78774 154.842 5.29523 154.991 5.06946 155.095C4.72989 155.25 4.66379 155.326 4.68703 155.532C4.70927 155.729 4.65027 155.811 4.4058 155.922C4.23565 156 3.95472 156.15 3.78143 156.256C3.60824 156.361 3.38157 156.437 3.27787 156.423C3.23272 156.417 3.17282 156.431 3.10982 156.459C2.87062 158.42 2.65029 160.309 2.44787 162.114C3.0367 161.649 3.3447 161.353 3.40291 161.196C3.5252 160.867 4.03764 160.412 4.25318 160.441C4.50229 160.475 7.4058 158.318 7.57198 157.976C7.73219 157.646 8.08937 157.479 8.51041 157.535C8.9223 157.591 9.7717 157.233 10.5593 156.672C11.2358 156.191 11.3303 156.154 11.6373 156.247C11.8627 156.315 12.0189 156.307 12.1104 156.223C12.1855 156.154 12.6419 155.931 13.1247 155.728L14.0026 155.358L13.6347 155.277C13.4324 155.232 13.2712 155.164 13.2766 155.126C13.282 155.088 13.5644 154.982 13.9042 154.89C14.4232 154.75 14.5201 154.688 14.5098 154.502C14.4997 154.32 14.5887 154.256 15.011 154.141C15.2934 154.065 16.0385 153.945 16.6669 153.875C17.2953 153.804 18.1193 153.633 18.4982 153.494C18.877 153.355 19.269 153.252 19.3694 153.266C19.4698 153.279 19.8519 153.149 20.2186 152.976C21.0329 152.593 21.5073 152.496 21.9803 152.617C22.2601 152.688 22.487 152.649 22.9941 152.441C23.3534 152.294 23.7499 152.194 23.8752 152.219C24.0003 152.243 24.1368 152.201 24.1785 152.125C24.3043 151.895 25.381 151.7 25.8034 151.831C26.0843 151.918 26.2449 151.907 26.4812 151.783C26.6516 151.693 27.0351 151.604 27.3334 151.584C27.9001 151.545 28.5381 151.302 28.9131 150.982C29.0342 150.878 29.2446 150.808 29.3808 150.827C29.5169 150.845 29.8043 150.743 30.0194 150.6C30.3305 150.393 30.4674 150.36 30.6873 150.44C30.9262 150.527 31.0593 150.475 31.6618 150.054L32.3596 149.566L32.9169 149.706C33.3429 149.813 33.5328 149.816 33.7226 149.718C33.93 149.611 34.0232 149.617 34.2892 149.756C34.563 149.898 34.7598 149.904 35.6897 149.796C36.9359 149.651 37.6569 149.728 38.4039 150.085L38.9325 150.338L38.2017 150.567C37.3526 150.832 35.9523 151.058 35.1802 151.055C34.8446 151.053 34.5234 151.127 34.3263 151.251C34.1527 151.36 33.9286 151.438 33.8284 151.424C33.72 151.41 33.6428 151.468 33.6378 151.569C33.6312 151.7 33.4437 151.754 32.801 151.811C32.3455 151.852 31.8368 151.868 31.6708 151.848C31.5047 151.828 31.2211 151.883 31.0405 151.97C30.8599 152.058 30.6385 152.12 30.5485 152.108C30.4585 152.096 30.0278 152.338 29.5915 152.645C28.8136 153.193 28.7875 153.202 28.2411 153.129C27.732 153.06 27.6656 153.077 27.471 153.324C27.1572 153.722 26.8449 153.812 26.4554 153.614C26.2805 153.526 26.1207 153.487 26.1004 153.528C25.9802 153.771 25.5494 154.209 25.3349 154.307C24.8148 154.546 24.6661 154.514 24.5753 154.145L24.4907 153.801L24.2252 154.287C23.8969 154.889 23.6934 154.959 22.9426 154.729C22.3958 154.561 22.3492 154.564 21.9094 154.791C20.9894 155.266 20.9329 155.283 20.8528 155.106C20.7319 154.839 19.5884 155.271 18.9987 155.806C18.7313 156.049 18.2184 156.385 17.859 156.555C17.2703 156.832 17.1396 156.854 16.5424 156.776C15.7834 156.676 15.1185 156.83 14.5732 157.231C14.3825 157.372 14.0179 157.518 13.763 157.556C13.4473 157.603 13.2794 157.686 13.2365 157.817C13.1527 158.072 12.9902 158.217 12.4756 158.494C11.9888 158.757 11.8657 158.769 11.8948 158.553C11.9283 158.304 11.7493 158.36 11.5806 158.65C11.4394 158.893 11.3604 158.92 10.8326 158.904C10.2351 158.887 9.01864 159.104 8.28242 159.361C7.94855 159.477 7.87287 159.553 7.83837 159.81C7.77952 160.248 7.16299 160.702 6.6085 160.716C6.3101 160.723 6.1287 160.796 5.98435 160.968C5.65815 161.355 5.21964 161.586 4.88962 161.546C4.63217 161.514 4.56099 161.559 4.44329 161.822C4.34683 162.038 4.19563 162.167 3.95733 162.236C3.71519 162.306 3.60235 162.403 3.58113 162.561C3.53251 162.923 3.00031 163.334 2.56694 163.345C2.46071 163.347 2.37922 163.355 2.30727 163.38C2.16176 164.703 2.0262 165.977 1.90017 167.196C2.54055 166.681 3.33695 166.14 3.9297 165.847C4.24462 165.691 4.61279 165.424 4.74789 165.252C4.91184 165.044 5.0701 164.949 5.2233 164.969C5.37488 164.988 5.81077 164.734 6.50384 164.223C7.08178 163.796 7.71141 163.393 7.90305 163.327C8.09469 163.26 8.37795 163.121 8.53256 163.017C8.68717 162.914 9.02497 162.798 9.28324 162.76C9.94418 162.664 10.1196 162.599 10.6289 162.262C10.8759 162.099 11.3214 161.929 11.6189 161.883C11.9165 161.838 12.2813 161.729 12.4297 161.641C12.5782 161.554 12.9666 161.421 13.2931 161.347C13.6195 161.272 13.9161 161.175 13.9523 161.131C14.0308 161.035 14.9019 160.76 16.1427 160.438C17.357 160.123 18.9234 159.939 19.3085 160.067C19.5211 160.137 19.9039 160.106 20.5585 159.965C21.2799 159.81 21.7529 159.778 22.567 159.831C23.6932 159.905 24.0289 159.846 25.8913 159.249C26.6294 159.012 26.8744 158.981 27.4124 159.053C27.9739 159.128 28.1062 159.108 28.4737 158.889C28.8376 158.672 28.9761 158.649 29.5128 158.722C29.8534 158.767 30.1859 158.764 30.2515 158.714C30.3347 158.65 30.4427 158.667 30.6076 158.771C30.7938 158.888 31.0294 158.906 31.7118 158.854C32.2556 158.812 32.978 158.843 33.6475 158.937C35.4089 159.185 35.2893 159.264 32.7902 159.502C32.3912 159.54 31.8574 159.573 31.604 159.575C31.3505 159.577 31.0345 159.628 30.9019 159.688C30.7692 159.747 30.5894 159.787 30.5024 159.775C30.4152 159.764 30.2096 159.826 30.0452 159.915C29.8808 160.003 29.2565 160.124 28.6579 160.182C27.3456 160.311 26.763 160.428 26.3479 160.647C26.136 160.759 25.8759 160.79 25.5408 160.745C25.1433 160.692 24.9934 160.722 24.7765 160.898C24.5833 161.055 24.4015 161.103 24.1361 161.068C23.8756 161.033 23.6407 161.092 23.3456 161.268C23.1147 161.406 22.8394 161.507 22.7337 161.493C22.6281 161.479 22.3392 161.535 22.0917 161.618C21.6286 161.773 19.8189 161.92 19.2729 161.846C19.0996 161.823 18.7305 161.915 18.426 162.056C17.4819 162.496 16.1029 162.945 15.8274 162.902C15.469 162.846 14.4935 162.889 14.1606 162.976C14.0124 163.014 13.8213 163.11 13.7357 163.189C13.6503 163.267 13.4712 163.317 13.3378 163.299C12.9734 163.25 12.5615 163.487 12.5239 163.766C12.4808 164.087 12.2506 164.135 10.9455 164.093C10.3572 164.075 9.593 164.109 9.24729 164.169C8.66086 164.271 8.61578 164.299 8.57397 164.586C8.5493 164.755 8.49304 164.921 8.44892 164.955C8.40482 164.988 8.07834 165.031 7.7235 165.05C7.19341 165.078 6.9032 165.177 6.09634 165.608C5.55629 165.896 4.65318 166.473 4.08957 166.89C3.52585 167.306 3.01184 167.64 2.94733 167.631C2.79127 167.61 2.2996 167.795 1.8138 168.038C0.87189 177.283 0.496094 183.176 0.496094 183.176C0.496094 183.176 9.61081 174.394 21.7975 166.729C20.6859 166.79 20.3425 166.771 20.1782 166.653C20.0367 166.551 19.7996 166.593 19.0238 166.86C18.4869 167.045 17.7918 167.215 17.4792 167.238C17.1666 167.262 16.7982 167.332 16.6606 167.395C16.4877 167.473 16.2795 167.47 15.9883 167.386C15.5564 167.261 14.7716 167.328 14.1897 167.54C14.0274 167.599 13.7638 167.68 13.6037 167.72C13.435 167.762 13.3023 167.87 13.288 167.976C13.2482 168.272 13.0202 168.372 12.5326 168.307C12.0046 168.236 10.3095 168.257 9.73505 168.341C9.42169 168.387 9.33724 168.447 9.31108 168.641C9.2696 168.95 9.02337 169.041 8.27308 169.023C7.85995 169.013 7.58912 169.069 7.39397 169.204C7.23887 169.312 6.94492 169.444 6.74074 169.498C6.53657 169.552 6.01802 169.813 5.58841 170.079C5.15882 170.345 4.62584 170.626 4.40397 170.705C4.18211 170.783 3.93167 170.934 3.84743 171.04C3.76319 171.146 3.48849 171.291 3.23702 171.363C2.98554 171.435 2.55642 171.606 2.28338 171.745C2.01026 171.883 1.7699 171.974 1.74921 171.947C1.72843 171.92 2.03138 171.668 2.42238 171.388C3.92255 170.313 5.89702 169.097 6.26047 169.023C6.46921 168.981 7.09646 168.689 7.65452 168.375C8.21248 168.061 8.88337 167.729 9.14546 167.638C9.40744 167.546 9.69725 167.424 9.78948 167.366C9.98604 167.241 10.8303 167.058 11.0684 167.088C11.1589 167.099 11.5358 166.96 11.9058 166.779C12.2758 166.598 12.8462 166.418 13.1733 166.379C13.5003 166.34 13.8909 166.25 14.0412 166.178C14.1915 166.106 14.5989 165.986 14.9466 165.911C15.2943 165.836 16.0592 165.651 16.6463 165.499C18.1637 165.108 19.6633 164.958 20.8298 165.079C21.4163 165.14 22.024 165.137 22.374 165.072C22.7436 165.003 23.4111 165.005 24.23 165.078C24.3146 165.085 24.3943 165.092 24.4694 165.098C35.0699 158.826 47.5384 153.849 58.2739 156.065C67.4391 157.957 80.0517 166.065 80.0517 166.065C80.0517 166.065 108.785 147.844 128.718 149.843C148.746 151.851 173.35 175.62 173.35 175.62C173.35 175.62 208.789 144.833 234.052 149.843C247.191 152.448 264.274 166.065 264.274 166.065C264.274 166.065 274.44 163.149 286.084 161.386C285.833 161.327 285.619 161.283 285.48 161.266C284.992 161.206 284.797 161.051 284.833 160.755C284.846 160.649 284.745 160.511 284.592 160.428C284.447 160.349 284.213 160.204 284.071 160.106C283.561 159.753 282.819 159.489 282.37 159.501C282.067 159.51 281.864 159.46 281.717 159.34C281.6 159.244 281.261 159.083 280.965 158.982C280.668 158.88 280.039 158.54 279.566 158.225C278.883 157.771 278.664 157.669 278.501 157.732C278.299 157.811 277.926 157.726 276.674 157.319C276.145 157.146 274.507 156.305 274.31 156.104C274.256 156.048 273.683 155.823 273.037 155.605C272.391 155.386 271.492 155.073 271.038 154.908C270.585 154.744 269.96 154.548 269.651 154.474C269.247 154.377 268.782 154.133 267.996 153.604C267.394 153.2 266.956 152.845 267.021 152.815C267.086 152.785 267.393 152.819 267.701 152.891C268.01 152.964 268.916 153.131 269.714 153.263C270.93 153.465 271.206 153.541 271.417 153.735C271.556 153.862 271.836 154.013 272.041 154.07C272.245 154.128 272.527 154.252 272.667 154.345C272.807 154.439 273.022 154.528 273.145 154.543C273.268 154.558 273.446 154.66 273.541 154.77C273.679 154.929 273.97 155.013 274.98 155.184C275.79 155.32 276.437 155.487 276.777 155.647C277.099 155.799 277.686 155.955 278.269 156.045C279.428 156.223 280.841 156.748 282.21 157.51C282.74 157.805 283.433 158.177 283.75 158.338C284.068 158.499 284.432 158.718 284.559 158.825C284.686 158.933 285.041 159.119 285.348 159.239C285.654 159.36 286.161 159.678 286.473 159.947C286.785 160.216 287.115 160.445 287.205 160.457C287.443 160.489 288.213 160.88 288.372 161.05L288.379 161.057C289.799 160.864 291.233 160.693 292.665 160.549C292.566 160.45 292.473 160.36 292.39 160.283C291.718 159.662 291.462 159.493 290.957 159.332C290.618 159.224 290.313 159.1 290.279 159.056C290.245 159.012 290.232 158.838 290.251 158.668C290.283 158.38 290.247 158.341 289.705 158.094C289.386 157.948 288.655 157.722 288.081 157.591C286.808 157.301 286.597 157.197 286.637 156.876C286.671 156.596 286.333 156.263 285.968 156.218C285.834 156.202 285.673 156.108 285.611 156.01C285.548 155.912 285.387 155.771 285.253 155.697C284.953 155.529 284.02 155.241 283.659 155.204C283.382 155.176 282.161 154.393 281.359 153.729C281.1 153.515 280.766 153.333 280.593 153.311C280.046 153.244 278.332 152.645 277.924 152.377C277.705 152.235 277.44 152.107 277.334 152.094C277.228 152.081 276.987 151.914 276.799 151.722C276.558 151.477 276.346 151.36 276.085 151.328C275.819 151.295 275.655 151.203 275.508 151.002C275.343 150.776 275.205 150.709 274.807 150.661C274.472 150.619 274.228 150.523 274.051 150.361C273.705 150.045 273.171 149.784 271.934 149.328C271.37 149.12 270.796 148.845 270.659 148.718C270.523 148.591 270.34 148.478 270.252 148.467C270.165 148.457 270.001 148.373 269.888 148.281C269.775 148.19 269.482 148.061 269.237 147.995C268.993 147.929 268.484 147.762 268.108 147.624C265.75 146.762 265.655 146.656 267.421 146.861C268.093 146.939 268.8 147.092 269.315 147.27C269.962 147.493 270.195 147.535 270.405 147.469C270.59 147.411 270.699 147.421 270.764 147.504C270.814 147.569 271.135 147.656 271.476 147.698C272.014 147.764 272.142 147.821 272.439 148.123C272.739 148.428 272.862 148.481 273.424 148.55C273.963 148.616 274.192 148.709 274.847 149.124C276.497 150.173 276.807 150.315 277.916 150.528C278.717 150.683 279.166 150.833 279.825 151.166C280.423 151.468 280.785 151.595 281.009 151.581C281.413 151.555 282.882 152.129 283.978 152.741C285.097 153.366 285.87 153.853 285.921 153.965C285.945 154.017 286.208 154.186 286.505 154.34C286.802 154.495 287.144 154.721 287.265 154.844C287.387 154.966 287.712 155.164 287.989 155.283C288.265 155.402 288.653 155.68 288.851 155.9C289.258 156.354 289.412 156.461 290.027 156.722C290.267 156.824 290.565 157.021 290.688 157.161C290.811 157.3 291.05 157.506 291.219 157.619C291.387 157.732 291.895 158.281 292.346 158.84C292.887 159.51 293.245 159.866 293.396 159.885C293.549 159.905 293.678 160.037 293.784 160.28C293.79 160.293 293.797 160.308 293.805 160.323C293.823 160.357 293.845 160.395 293.871 160.434C294.979 160.335 296.082 160.254 297.175 160.194C297.109 160.049 297.038 159.877 296.963 159.677C296.768 159.162 296.698 159.079 296.377 158.986C295.96 158.866 295.549 158.334 295.594 157.971C295.613 157.813 295.529 157.69 295.312 157.561C295.099 157.435 294.985 157.272 294.946 157.039C294.899 156.754 294.842 156.693 294.585 156.659C294.255 156.614 293.889 156.279 293.672 155.822C293.575 155.62 293.418 155.503 293.132 155.42C292.599 155.267 292.117 154.672 292.171 154.233C292.202 153.976 292.148 153.883 291.855 153.686C291.207 153.252 290.085 152.734 289.503 152.6C288.988 152.481 288.919 152.435 288.844 152.164C288.754 151.841 288.595 151.742 288.564 151.991C288.538 152.208 288.422 152.165 288.017 151.788C287.589 151.389 287.469 151.208 287.452 150.939C287.444 150.802 287.302 150.679 287.009 150.554C286.772 150.452 286.456 150.219 286.307 150.035C285.881 149.509 285.277 149.192 284.517 149.096C283.92 149.021 283.799 148.966 283.299 148.549C282.994 148.295 282.583 147.839 282.386 147.537C281.951 146.87 280.954 146.163 280.769 146.391C280.647 146.541 280.596 146.511 279.827 145.819C279.458 145.488 279.414 145.473 278.843 145.497C278.058 145.53 277.879 145.411 277.713 144.745L277.58 144.208L277.411 144.519C277.23 144.853 277.078 144.846 276.635 144.484C276.452 144.335 276.146 143.802 276.091 143.537C276.082 143.492 275.918 143.489 275.726 143.53C275.299 143.623 275.02 143.457 274.817 142.993C274.691 142.704 274.631 142.671 274.121 142.609C273.574 142.542 273.551 142.526 272.937 141.799C272.592 141.392 272.237 141.049 272.147 141.038C272.057 141.026 271.858 140.91 271.706 140.78C271.553 140.65 271.293 140.525 271.127 140.502C270.961 140.48 270.473 140.335 270.043 140.181C269.435 139.963 269.268 139.863 269.294 139.735C269.315 139.636 269.255 139.56 269.147 139.547C269.046 139.534 268.849 139.402 268.709 139.253C268.549 139.083 268.257 138.931 267.932 138.847C267.184 138.655 265.887 138.082 265.132 137.611L264.483 137.205L265.059 137.094C265.872 136.937 266.589 137.045 267.758 137.5C268.63 137.84 268.822 137.884 269.123 137.816C269.415 137.749 269.507 137.766 269.681 137.923C269.839 138.066 270.024 138.111 270.463 138.115L271.038 138.121L271.589 138.769C272.066 139.328 272.181 139.413 272.434 139.389C272.667 139.367 272.792 139.433 273.04 139.712C273.212 139.905 273.464 140.077 273.601 140.093C273.737 140.11 273.923 140.231 274.014 140.362C274.296 140.766 274.852 141.163 275.39 141.343C275.674 141.438 276.022 141.622 276.164 141.752C276.362 141.932 276.514 141.983 276.808 141.97C277.25 141.95 278.242 142.411 278.306 142.665C278.327 142.75 278.448 142.825 278.575 142.833C278.703 142.84 279.061 143.037 279.371 143.271C279.81 143.6 280.019 143.695 280.308 143.697C280.796 143.7 281.23 143.913 281.921 144.491C282.232 144.75 282.569 144.973 282.67 144.985C282.77 144.998 283.124 145.196 283.455 145.427C283.786 145.657 284.54 146.031 285.13 146.258C285.721 146.485 286.411 146.789 286.665 146.935C287.045 147.152 287.114 147.237 287.059 147.411C287.002 147.588 287.08 147.673 287.546 147.939C287.852 148.114 288.098 148.288 288.094 148.326C288.089 148.364 287.916 148.389 287.709 148.381L287.333 148.367L288.089 148.946C288.504 149.265 288.89 149.596 288.945 149.682C289.012 149.787 289.161 149.834 289.396 149.825C289.717 149.813 289.799 149.873 290.332 150.509C290.952 151.251 291.683 151.812 292.096 151.862C292.518 151.914 292.821 152.167 292.892 152.526C292.967 152.899 295.23 155.72 295.48 155.751C295.696 155.777 296.076 156.347 296.111 156.696C296.133 156.908 296.487 157.44 297.223 158.365C297.737 159.011 298.125 159.552 298.465 160.133C301.191 160.025 303.832 160.059 306.274 160.287C324.065 161.95 352.496 183.176 352.496 183.176C352.496 183.176 350.401 115.318 334.683 75.8427C334.361 75.0325 334.025 74.2153 333.677 73.392C333.499 73.306 333.429 73.1753 333.452 72.9879C333.465 72.8816 333.364 72.744 333.211 72.6608C333.066 72.5817 332.832 72.4366 332.69 72.3384C332.18 71.9859 331.438 71.7223 330.989 71.7343C330.686 71.7424 330.484 71.6924 330.336 71.5726C330.219 71.4772 329.88 71.3161 329.584 71.2145C329.287 71.1131 328.658 70.7725 328.185 70.458C327.502 70.0035 327.283 69.9022 327.12 69.9652C326.918 70.0436 326.545 69.9592 325.293 69.5514C324.764 69.3792 323.126 68.5375 322.929 68.3366C322.875 68.2808 322.302 68.0563 321.656 67.8378C321.01 67.6193 320.111 67.3058 319.657 67.1411C319.204 66.9766 318.58 66.7811 318.27 66.7068C317.866 66.6097 317.401 66.3654 316.615 65.8372C316.013 65.4332 315.575 65.0779 315.64 65.0479C315.705 65.0177 316.012 65.0521 316.32 65.1242C316.629 65.1964 317.535 65.3638 318.333 65.4961C319.549 65.6979 319.825 65.7743 320.036 65.9676C320.175 66.0946 320.456 66.2455 320.66 66.3031C320.864 66.3607 321.146 66.4844 321.286 66.578C321.426 66.6715 321.641 66.7604 321.764 66.7755C321.887 66.7906 322.065 66.8929 322.16 67.0028C322.298 67.1623 322.589 67.246 323.599 67.4165C324.409 67.5533 325.056 67.7202 325.396 67.8803C325.718 68.0319 326.305 68.1883 326.888 68.2777C328.047 68.4556 329.46 68.9807 330.829 69.7427C331.359 70.0376 332.052 70.4103 332.37 70.571C332.402 70.5877 332.436 70.605 332.469 70.6227C331.837 69.2128 331.172 67.7881 330.479 66.3529C330.303 66.2222 330.133 66.0897 329.978 65.9616C329.719 65.7474 329.385 65.5653 329.212 65.5441C328.665 65.477 326.951 64.8775 326.543 64.6103C326.324 64.4674 326.059 64.34 325.953 64.327C325.847 64.314 325.606 64.1466 325.418 63.9549C325.177 63.7099 324.965 63.5929 324.704 63.5609C324.438 63.5283 324.274 63.4356 324.127 63.2347C323.962 63.0092 323.824 62.9422 323.426 62.8934C323.091 62.8522 322.847 62.7558 322.67 62.5942C322.324 62.2775 321.79 62.0167 320.553 61.5605C319.989 61.3524 319.415 61.078 319.278 60.9508C319.142 60.8236 318.959 60.7109 318.871 60.7002C318.784 60.6895 318.62 60.6058 318.507 60.5143C318.394 60.4228 318.101 60.2938 317.856 60.2277C317.612 60.1616 317.103 59.995 316.727 59.8573C314.369 58.9949 314.274 58.8884 316.04 59.0942C316.712 59.1723 317.419 59.3248 317.934 59.5025C318.581 59.7256 318.814 59.7682 319.024 59.7021C319.209 59.6435 319.318 59.654 319.383 59.7365C319.433 59.8016 319.754 59.8891 320.095 59.931C320.633 59.9969 320.761 60.0535 321.058 60.3556C321.358 60.6606 321.481 60.7139 322.044 60.7829C322.582 60.849 322.811 60.9416 323.466 61.3572C325.116 62.4059 325.426 62.5476 326.535 62.7613C327.336 62.9158 327.785 63.0659 328.444 63.3986C328.748 63.5522 328.991 63.6605 329.186 63.728C328.064 61.4915 326.879 59.2357 325.648 56.9758C325.547 56.9396 325.421 56.8536 325.254 56.7171C325.071 56.5677 324.765 56.0344 324.71 55.7696C324.701 55.7245 324.537 55.7216 324.345 55.7631C323.918 55.8556 323.639 55.6902 323.436 55.2253C323.31 54.9372 323.25 54.9041 322.74 54.8415C322.193 54.7744 322.17 54.7587 321.556 54.0323C321.212 53.6248 320.856 53.2821 320.766 53.2706C320.676 53.2593 320.477 53.1433 320.325 53.0129C320.172 52.8826 319.912 52.7575 319.746 52.7351C319.58 52.7127 319.092 52.568 318.662 52.4137C318.054 52.1961 317.887 52.096 317.913 51.9675C317.934 51.869 317.874 51.7929 317.766 51.7796C317.665 51.7673 317.468 51.6349 317.328 51.4855C317.168 51.316 316.876 51.1635 316.551 51.0801C315.803 50.8883 314.506 50.3153 313.751 49.8437L313.102 49.4379L313.678 49.3269C314.491 49.1701 315.208 49.2781 316.377 49.7333C317.249 50.0729 317.441 50.1172 317.742 50.0484C318.034 49.9814 318.126 49.999 318.3 50.1554C318.458 50.2984 318.643 50.3438 319.082 50.3481L319.657 50.3535L320.208 51.0016C320.685 51.5611 320.8 51.6459 321.053 51.622C321.287 51.6 321.411 51.6661 321.659 51.945C321.831 52.1378 322.083 52.3093 322.22 52.3261C322.356 52.3428 322.542 52.4635 322.633 52.5944C322.859 52.9194 323.262 53.239 323.69 53.4458C308.477 26.4811 287.794 0.0649414 287.794 0.0649414C287.794 0.0649414 263.682 18.9292 246.017 26.9538C226.981 35.6008 212.697 40.0665 195.344 41.657L182.648 7.49667L181.215 19.0201C178.978 18.2877 175.013 17.1492 172.052 17.1761C169.004 17.2037 164.863 18.4849 162.832 19.1811L160.587 7.66815L157.225 19.0618C157.225 19.0705 157.223 19.0783 157.218 19.0852L155.593 24.5947C155.663 24.614 155.726 24.6426 155.771 24.6777C155.879 24.7624 156.179 24.8198 156.437 24.8053C156.81 24.7843 156.944 24.8255 157.093 25.006C157.255 25.2021 157.397 25.2239 158.13 25.166L158.978 25.0989L159.388 25.5018C159.701 25.8097 159.863 25.9082 160.077 25.9196C160.31 25.9319 160.387 25.9844 160.546 26.2388C160.71 26.5005 160.877 26.605 161.734 26.9826C162.882 27.4887 163.465 27.92 163.928 28.6062L164.256 29.092L163.51 28.919C162.643 28.7181 161.321 28.2042 160.657 27.8104C160.368 27.6391 160.054 27.5401 159.822 27.547C159.617 27.5531 159.384 27.5071 159.304 27.4448C159.218 27.3774 159.122 27.3887 159.067 27.4728C158.995 27.5825 158.805 27.5345 158.222 27.2583C157.809 27.0625 157.362 26.8193 157.229 26.7178C157.096 26.6163 156.824 26.5202 156.624 26.5043C156.423 26.4884 156.201 26.4298 156.13 26.3741C156.06 26.3199 155.59 26.3093 155.075 26.3493L153.249 32.5372C153.37 32.6063 153.523 32.6849 153.718 32.7802C154.208 33.0196 154.815 33.4122 155.345 33.8325C156.738 34.9378 156.595 34.9452 154.32 33.8854C153.956 33.7163 153.479 33.4742 153.26 33.3477C153.193 33.309 153.118 33.2713 153.043 33.2371L150.888 40.5423C136.372 38.3755 124.057 34.111 107.572 26.9538ZM300.096 154.631C300.842 155.746 301.104 156.271 301.371 157.181C301.713 158.349 301.653 158.521 301.162 157.776C300.941 157.439 300.568 156.931 300.333 156.646C300.098 156.361 299.913 156.074 299.921 156.009C299.929 155.943 299.798 155.695 299.631 155.457C299.464 155.219 299.282 154.863 299.227 154.666C299.171 154.469 298.856 153.944 298.527 153.499C298.197 153.053 297.86 152.564 297.778 152.411C297.696 152.258 297.544 152.122 297.44 152.109C297.336 152.097 297.136 151.967 296.995 151.82C296.854 151.674 296.62 151.458 296.475 151.34C296.267 151.17 296.23 151.076 296.302 150.891C296.376 150.697 296.331 150.608 296.042 150.371C295.85 150.214 295.411 149.945 295.067 149.773C294.723 149.602 294.383 149.374 294.312 149.268C294.241 149.161 294.028 149.023 293.839 148.961C293.312 148.787 293.045 148.528 293.142 148.284C293.238 148.042 293.109 147.798 292.868 147.769C292.775 147.757 292.618 147.607 292.521 147.434C292.252 146.958 291.577 146.487 291.076 146.425C290.698 146.379 290.586 146.299 290.083 145.716C288.614 144.013 288.447 143.839 288.331 143.893C288.263 143.924 288.12 143.847 288.013 143.721C287.758 143.42 287.154 143.084 286.786 143.039C286.586 143.014 286.396 142.878 286.184 142.607C286.014 142.39 285.784 142.201 285.672 142.187C285.561 142.173 285.337 141.977 285.176 141.751C285.015 141.525 284.739 141.273 284.562 141.191C284.377 141.104 284.173 140.894 284.078 140.693C283.941 140.4 283.853 140.337 283.522 140.293C283.202 140.25 283.072 140.163 282.815 139.818C282.509 139.408 280.874 138.126 280.383 137.911C279.945 137.719 279.389 137.313 279.117 136.987C278.97 136.81 278.552 136.511 278.188 136.321C277.404 135.912 276.519 135.27 276.537 135.123C276.561 134.923 277.865 135.253 278.537 135.628C278.888 135.824 279.393 136.021 279.658 136.065C279.952 136.114 280.208 136.224 280.313 136.346C280.416 136.464 280.647 136.565 280.878 136.594C281.204 136.634 281.357 136.738 281.787 137.216C282.071 137.532 282.371 137.798 282.454 137.808C282.537 137.819 282.697 137.953 282.81 138.108C282.923 138.262 283.075 138.395 283.147 138.404C283.219 138.413 283.402 138.595 283.554 138.81C283.904 139.305 284.421 139.636 285.321 139.943C285.713 140.077 286.147 140.288 286.285 140.41C287.159 141.19 287.498 141.419 287.954 141.54C288.417 141.662 289.883 142.547 290.191 142.889C290.265 142.972 290.454 143.126 290.609 143.232C290.765 143.337 291.097 143.648 291.347 143.922C291.597 144.196 292.145 144.663 292.565 144.96C293.058 145.307 293.305 145.544 293.262 145.625C293.225 145.694 293.293 145.824 293.413 145.913C293.533 146.002 293.623 146.139 293.614 146.218C293.604 146.296 293.774 146.48 293.991 146.625C294.209 146.77 294.721 147.28 295.129 147.759C296.529 149.4 296.693 149.566 296.952 149.598C297.247 149.634 297.37 149.792 297.421 150.202C297.441 150.365 297.736 150.892 298.077 151.374C298.418 151.856 298.785 152.402 298.892 152.587C299 152.773 299.151 152.932 299.226 152.941C299.405 152.963 299.629 153.387 299.599 153.648C299.586 153.761 299.809 154.203 300.096 154.631Z" fill="url(#paint0_linear_547_3502)"/>
<path d="M145.982 50.076L146.145 50.3326H146.308L151.037 49.8193H153.484C161.882 49.8193 168.949 54.5246 174.683 63.935C176.64 68.4692 177.619 72.3189 177.619 75.4842V76.5108L177.129 77.2808C171.612 77.2808 167.59 79.0773 165.062 82.6704H164.899V80.1039C164.899 72.9605 162.833 67.9131 158.702 64.9616V145.549C158.702 145.934 156.582 146.448 152.342 147.089C150.032 147.945 148.129 149.228 146.634 150.939L145.982 151.709L145.819 151.452V64.9616C141.688 67.9131 139.622 72.9605 139.622 80.1039V82.6704H139.459C136.986 79.0773 132.909 77.2808 127.228 77.2808L126.902 76.5108V75.4842C126.902 72.7039 127.663 69.3674 129.185 65.4749C132.094 58.9304 136.877 54.2251 143.536 51.3592C145.167 50.8887 145.982 50.461 145.982 50.076Z" fill="url(#paint1_linear_547_3502)"/>
<path d="M276.291 28.6743L276.535 28.8883L276.681 28.8349L280.733 26.7537L282.929 25.9537C290.471 23.207 298.601 25.7963 307.32 33.7216C310.797 37.8038 313.136 41.4932 314.337 44.7899L314.726 45.859L314.579 46.8209C309.625 48.6254 306.694 51.812 305.787 56.3808L305.641 56.4341L304.667 53.7611C301.958 46.3214 298.188 41.7402 293.359 40.0174L323.929 123.948C324.075 124.349 322.366 125.577 318.802 127.632C317.052 129.278 315.831 131.237 315.137 133.508L314.844 134.523L314.6 134.309L281.791 44.2307C279.201 48.6557 279.261 54.5881 281.971 62.0278L282.944 64.7007L282.798 64.7541C279.214 61.8208 274.872 61.2831 269.771 63.1408L269.186 62.4456L268.797 61.3764C267.742 58.4808 267.16 54.757 267.05 50.2053C267.179 42.4382 269.689 35.9733 274.581 30.8108C275.867 29.7874 276.437 29.0752 276.291 28.6743Z" fill="url(#paint2_linear_547_3502)"/>
<path d="M108.782 45.8539L109.799 45.9679C117.455 46.8261 122.641 60.7881 125.357 87.8538C126.94 108.437 126.788 127.153 124.899 144.001L124.621 146.479L124.282 146.441C122.007 143.008 119.131 141.097 115.656 140.707C113.194 140.222 111.987 139.752 112.038 139.298L112.149 138.307C113.77 123.854 114.76 109.915 115.12 96.491C111.003 100.044 107.052 101.608 103.266 101.184C99.3676 100.747 95.8041 98.34 92.5758 93.9639C92.2368 93.9259 91.0812 100.152 89.109 112.643C87.8257 121.029 86.7952 128.691 86.0175 135.629L85.9342 136.372C85.8787 136.868 83.7418 137.046 79.5235 136.908C76.4743 137.57 74.1041 138.809 72.4128 140.627L72.0738 140.589L72.3515 138.111C74.8743 115.605 80.5362 92.6562 89.3371 69.2648C96.424 52.9989 102.906 45.1952 108.782 45.8539ZM93.8898 86.8355L115.248 89.2295C115.153 69.1479 112.817 58.8506 108.241 58.3376L107.563 58.2616C102.986 57.7486 98.4283 67.2732 93.8898 86.8355Z" fill="url(#paint3_linear_547_3502)"/>
<path d="M79.9652 33.3381L81.1427 33.8936C88.2273 37.2355 91.1777 45.1202 89.9939 57.5475C89.2578 61.3457 88.302 64.4909 87.1264 66.983L86.0858 69.1892C82.983 75.7667 78.129 80.8689 71.5238 84.4957C69.2436 85.6676 67.5657 86.2746 66.4902 86.3166L66.259 86.8069C67.4835 88.4833 68.3296 91.9791 68.7974 97.2941C68.7021 103.193 67.6041 108.368 65.5034 112.822L64.4628 115.028C61.1287 122.095 55.768 127.458 48.3807 131.115C43.27 133.1 38.8503 133.213 35.1215 131.454L33.944 130.898C30.3134 129.186 27.6296 125.822 25.8926 120.807C22.5434 120.176 20.0021 120.376 18.2685 121.406L16.6327 122.432L16.3972 122.321L61.9558 25.7417L62.0736 25.7973C62.7466 29.7108 63.9369 32.0703 65.6442 32.8757L66.4727 33.8659C71.5623 31.6718 76.0598 31.4959 79.9652 33.3381ZM58.6522 56.5478L51.483 71.7456L59.1368 75.3561C64.7299 77.9945 69.9947 75.6832 74.9313 68.4224L76.7856 65.1018C80.1582 57.9523 80.0766 51.9203 76.5408 47.006L74.7724 45.8721C70.5334 43.8725 65.8167 46.2425 60.6221 52.982L58.6522 56.5478ZM49.1704 76.6482L38.3011 99.69C34.9285 106.839 35.0102 112.871 38.546 117.786L40.3144 118.92C44.5533 120.919 49.2701 118.549 54.4646 111.81L56.4346 108.244C59.9999 100.686 59.839 94.5167 55.9521 89.7364C51.4972 87.6349 49.2367 83.2722 49.1704 76.6482Z" fill="url(#paint4_linear_547_3502)"/>
<path d="M248.56 43.8756L249.43 43.7196C255.983 42.5454 263.991 54.3683 273.455 79.1881C280.253 98.1881 285.12 115.877 288.055 132.255L288.486 134.663L288.196 134.715C285.401 132.068 282.516 131.01 279.542 131.543C277.378 131.724 276.257 131.593 276.178 131.152L276.005 130.188C273.488 116.139 270.587 102.738 267.304 89.9852C264.851 94.402 262.004 96.9008 258.764 97.4814C255.428 98.0793 251.842 96.7331 248.008 93.4428C247.718 93.4947 248.425 99.6656 250.128 111.955C251.305 120.196 252.498 127.689 253.706 134.433L253.836 135.155C253.922 135.637 252.205 136.359 248.684 137.321C246.342 138.735 244.715 140.518 243.803 142.67L243.512 142.722L243.081 140.314C239.161 118.437 237.715 95.3287 238.744 70.9901C240.258 53.815 243.53 44.7768 248.56 43.8756ZM247.192 86.3801L265.472 83.1045C260.036 64.1917 255.36 55.0863 251.443 55.7882L250.863 55.8922C246.946 56.5941 245.722 66.7567 247.192 86.3801Z" fill="url(#paint5_linear_547_3502)"/>
<path d="M202.986 50.3491L204.586 50.2018C214.211 49.3155 222.095 53.7601 228.239 63.5355C229.713 66.701 230.561 69.4866 230.783 71.8924L231.11 75.4419C231.153 75.9152 229.216 76.4912 225.299 77.1701C222.713 78.2833 220.665 79.9833 219.154 82.2701L218.994 82.2848L218.188 73.5293C217.898 70.3742 215.939 67.2135 212.314 64.0473C209.781 62.5305 207.301 61.8838 204.875 62.1072C199.116 62.6375 195.451 66.6341 193.879 74.0971L193.886 77.6761L197.721 119.324C198.356 126.226 202.045 130.659 208.787 132.623L211.368 132.624C217.127 132.094 220.793 128.097 222.364 120.634C222.204 118.899 222.551 117.992 223.404 117.914C228.47 117.447 232.058 115.526 234.167 112.15L234.487 112.12L235.053 118.273C235.681 125.096 233.109 131.617 227.336 137.836C223.016 141.734 218.323 143.916 213.257 144.383L211.658 144.53C202.032 145.416 194.148 140.971 188.005 131.196C186.53 128.031 185.682 125.245 185.46 122.839L179.055 53.2685L179.215 53.2538C182.276 55.8356 184.966 57.0197 187.286 56.8062L188.769 57.1468C192.941 53.1035 197.68 50.8376 202.986 50.3491Z" fill="url(#paint6_linear_547_3502)"/>
<defs>
<linearGradient id="paint0_linear_547_3502" x1="176.496" y1="0.0649414" x2="176.496" y2="183.176" gradientUnits="userSpaceOnUse">
<stop/>
<stop offset="1"/>
</linearGradient>
<linearGradient id="paint1_linear_547_3502" x1="152.261" y1="49.8193" x2="152.261" y2="151.709" gradientUnits="userSpaceOnUse">
<stop stop-color="white"/>
<stop offset="1"/>
</linearGradient>
<linearGradient id="paint2_linear_547_3502" x1="281.831" y1="26.3537" x2="320.481" y2="132.47" gradientUnits="userSpaceOnUse">
<stop stop-color="white"/>
<stop offset="1"/>
</linearGradient>
<linearGradient id="paint3_linear_547_3502" x1="109.29" y1="45.9109" x2="98.3475" y2="143.534" gradientUnits="userSpaceOnUse">
<stop stop-color="white"/>
<stop offset="1"/>
</linearGradient>
<linearGradient id="paint4_linear_547_3502" x1="80.554" y1="33.6158" x2="34.5328" y2="131.176" gradientUnits="userSpaceOnUse">
<stop stop-color="white"/>
<stop offset="1"/>
</linearGradient>
<linearGradient id="paint5_linear_547_3502" x1="248.995" y1="43.7976" x2="265.999" y2="138.693" gradientUnits="userSpaceOnUse">
<stop stop-color="white"/>
<stop offset="1"/>
</linearGradient>
<linearGradient id="paint6_linear_547_3502" x1="203.786" y1="50.2754" x2="212.458" y2="144.456" gradientUnits="userSpaceOnUse">
<stop stop-color="white"/>
<stop offset="1"/>
</linearGradient>
</defs>
</svg>
